<svg width="90" height="90" viewBox="0 0 90 90" fill="none" xmlns="http://www.w3.org/2000/svg">
<g filter="url(#filter0_d_36_318)">
<path d="M34.4581 3.73879C13.3566 7.9039 -0.413184 28.4404 3.73879 49.5419C7.9039 70.6433 28.4404 84.4263 49.5419 80.2612C70.6433 76.0961 84.4132 55.5596 80.2612 34.4581C76.0961 13.3567 55.5596 -0.413184 34.4581 3.73879Z" fill="white"/>
<path d="M69.1455 30.9237C68.6331 28.3222 67.8184 25.852 66.7542 23.5527C64.4023 20.3993 61.4722 17.7452 58.1612 15.7086C52.4194 13.6457 46.0337 13.1727 39.6481 14.6706C22.0416 18.8094 11.123 36.4553 15.2618 54.0618C15.8662 56.637 16.7728 59.0678 17.9028 61.3277C19.9 63.7979 22.2519 65.9396 24.8666 67.6871C30.5295 69.9601 36.902 70.6696 43.3402 69.3951C61.0912 65.9001 72.6405 48.6747 69.1455 30.9237ZM50.8164 26.9031C52.8398 26.509 54.8107 27.8229 55.218 29.8463C55.6122 31.8697 54.2983 33.8406 52.2617 34.2479C50.2383 34.6421 48.2674 33.3282 47.8601 31.3048C47.4659 29.2813 48.7798 27.3105 50.8032 26.9031H50.8164ZM28.0856 31.3836C30.1091 30.9894 32.0799 32.3033 32.4873 34.3268C32.8814 36.3502 31.5675 38.3211 29.5441 38.7284C27.5207 39.1226 25.5498 37.8086 25.1425 35.7852C24.7483 33.7618 26.0622 31.7909 28.0988 31.3836H28.0856ZM21.319 46.0732L62.6416 37.9269C64.8884 49.3317 57.4648 60.408 46.06 62.6679C34.6421 64.9147 23.5789 57.4911 21.319 46.0732Z" fill="#FFCE00"/>
<path d="M66.7673 23.5526C67.8316 25.8651 68.6462 28.3221 69.1586 30.9237C72.6537 48.6747 61.1043 65.9001 43.3533 69.3951C36.9152 70.6696 30.5558 69.9469 24.8797 67.687C31.4361 72.0624 39.6481 73.9413 47.9783 72.2989C64.6913 69.0009 75.5968 52.7347 72.312 36.0217C71.3923 31.3441 69.4477 27.1264 66.7673 23.5395V23.5526Z" fill="#FFB100"/>
<path d="M39.648 14.6706C46.0337 13.1727 52.4193 13.6457 58.1611 15.7086C51.7755 11.7668 43.9445 10.1376 36.0216 11.7011C19.3086 14.9991 8.40314 31.2653 11.6879 47.9783C12.6865 53.0369 14.8807 57.5699 17.9028 61.3277C16.7596 59.0678 15.8662 56.6371 15.2618 54.0618C11.1229 36.4553 22.0416 18.8094 39.648 14.6706Z" fill="#FFE454"/>
<path d="M35.2991 8.02215C16.5626 11.7142 4.33008 29.9645 8.02218 48.701C11.7143 67.4374 29.9646 79.6699 48.701 75.9778C67.4374 72.2857 79.67 54.0355 75.9779 35.299C72.2858 16.5626 54.0355 4.33004 35.2991 8.02215ZM47.9783 72.2989C39.6613 73.9413 31.4361 72.0492 24.8797 67.687C22.265 65.9395 19.9131 63.7979 17.916 61.3277C14.8808 57.5568 12.6997 53.0369 11.7011 47.9783C8.40321 31.2653 19.3218 14.999 36.0348 11.7011C43.9578 10.1376 51.7887 11.7668 58.1743 15.7086C61.4854 17.7451 64.4154 20.3992 66.7673 23.5526C69.4477 27.1396 71.3792 31.3573 72.312 36.0348C75.61 52.7478 64.6913 69.0141 47.9783 72.312V72.2989Z" fill="black"/>
<path d="M45.3242 58.9889C53.4311 57.386 59.0941 50.3434 59.278 42.4073H59.2517L26.1279 48.9375C29.3076 56.2166 37.2174 60.5788 45.3242 58.9889Z" fill="white"/>
<path d="M62.6547 37.9268L21.3321 46.0731C23.5789 57.491 34.6552 64.9147 46.0731 62.6679C57.491 60.4211 64.9147 49.3448 62.6547 37.9268ZM59.2517 42.4204H59.278C59.094 50.3565 53.431 57.3991 45.3242 59.0021C37.2173 60.605 29.3076 56.2297 26.1279 48.9506L59.2517 42.4204Z" fill="black"/>
<path d="M28.0988 31.3836C30.1222 30.9894 32.0931 32.3033 32.5004 34.3267C32.8946 36.3502 31.5806 38.321 29.5572 38.7284C27.5338 39.1225 25.5629 37.8086 25.1556 35.7852C24.7614 33.7618 26.0753 31.7909 28.1119 31.3836H28.0988Z" fill="black"/>
<path d="M50.8295 26.9031C52.8529 26.5089 54.8238 27.8229 55.2311 29.8463C55.6253 31.8697 54.3114 33.8406 52.2748 34.2479C50.2514 34.6421 48.2805 33.3282 47.8732 31.3047C47.479 29.2813 48.7929 27.3104 50.8164 26.9031H50.8295Z" fill="black"/>
</g>
<defs>
<filter id="filter0_d_36_318" x="0" y="0" width="90" height="90.0037" filterUnits="userSpaceOnUse" color-interpolation-filters="sRGB">
<feFlood flood-opacity="0" result="BackgroundImageFix"/>
<feColorMatrix in="SourceAlpha" type="matrix" values="0 0 0 0 0 0 0 0 0 0 0 0 0 0 0 0 0 0 127 0" result="hardAlpha"/>
<feOffset dx="3" dy="3"/>
<feGaussianBlur stdDeviation="3"/>
<feColorMatrix type="matrix" values="0 0 0 0 0 0 0 0 0 0 0 0 0 0 0 0 0 0 0.1 0"/>
<feBlend mode="normal" in2="BackgroundImageFix" result="effect1_dropShadow_36_318"/>
<feBlend mode="normal" in="SourceGraphic" in2="effect1_dropShadow_36_318" result="shape"/>
</filter>
</defs>
</svg>
