<svg width="83" height="83" viewBox="0 0 83 83" fill="none" xmlns="http://www.w3.org/2000/svg">
<g filter="url(#filter0_d_5_815)">
<path d="M58.93 26.15C58.18 24.08 57.2 22.16 56.03 20.4C53.7 18.11 50.95 16.31 47.97 15.06C42.99 14.1 37.69 14.52 32.64 16.57C18.71 22.22 12 38.09 17.65 52.01C18.48 54.05 19.52 55.93 20.75 57.64C22.7 59.41 24.9 60.87 27.28 61.97C32.22 63.11 37.54 62.88 42.66 61.02C56.78 55.88 64.07 40.27 58.93 26.15ZM43.87 26.45C45.48 25.86 47.27 26.7 47.86 28.31C48.45 29.92 47.61 31.71 46 32.3C44.39 32.89 42.6 32.05 42.01 30.44C41.42 28.83 42.26 27.04 43.87 26.45ZM25.79 33.03C27.4 32.44 29.19 33.28 29.78 34.89C30.37 36.5 29.53 38.29 27.92 38.88C26.31 39.47 24.52 38.63 23.93 37.02C23.34 35.41 24.18 33.62 25.79 33.03ZM21.25 44.81L24.17 43.75C26.96 51.42 35.45 55.37 43.1 52.58C50.75 49.79 54.72 41.32 51.93 33.65L54.85 32.59C58.24 41.91 53.42 52.14 44.16 55.51C34.89 58.88 24.63 54.13 21.24 44.82L21.25 44.81Z" fill="#FFCE00"/>
<path d="M32.65 16.57C37.7 14.52 43 14.1 47.98 15.06C42.23 12.65 35.6 12.3 29.29 14.6C16 19.43 9.11001 34.18 13.95 47.48C15.41 51.51 17.79 54.95 20.76 57.65C19.53 55.94 18.49 54.06 17.66 52.02C12.01 38.09 18.72 22.23 32.65 16.58V16.57Z" fill="#FFE454"/>
<path d="M27.12 8.63001C10.54 14.66 1.95 33.06 7.98 49.64C14.01 66.22 32.41 74.81 48.99 68.78C65.57 62.75 74.16 44.35 68.13 27.77C62.1 11.19 43.71 2.60001 27.12 8.63001ZM47.81 65.53C40.44 68.21 32.67 67.65 26.07 64.59C23.43 63.37 20.98 61.75 18.81 59.77C15.51 56.76 12.86 52.94 11.24 48.46C5.86 33.67 13.52 17.26 28.31 11.88C35.33 9.33001 42.7 9.71001 49.1 12.4C52.41 13.79 55.46 15.8 58.06 18.34C61.01 21.23 63.38 24.81 64.89 28.95C70.27 43.74 62.61 60.15 47.82 65.53H47.81Z" fill="white"/>
<path d="M56.03 20.4C57.2 22.16 58.18 24.08 58.93 26.15C64.07 40.27 56.78 55.89 42.66 61.02C37.54 62.88 32.22 63.11 27.28 61.97C33.22 64.72 40.2 65.22 46.83 62.81C60.12 57.98 67.01 43.23 62.17 29.93C60.82 26.21 58.69 22.99 56.03 20.39V20.4Z" fill="#FFB100"/>
<path d="M28.23 11.67C13.32 17.09 5.6 33.63 11.02 48.54C16.44 63.45 32.98 71.16 47.89 65.74C62.8 60.32 70.51 43.78 65.09 28.87C59.67 13.97 43.13 6.25002 28.23 11.67ZM46.83 62.82C40.21 65.23 33.22 64.73 27.28 61.98C24.91 60.88 22.7 59.42 20.75 57.65C17.78 54.95 15.41 51.51 13.94 47.48C9.1 34.18 15.99 19.44 29.28 14.6C35.59 12.31 42.22 12.65 47.97 15.06C50.95 16.31 53.69 18.12 56.03 20.4C58.69 23 60.81 26.22 62.17 29.94C67 43.24 60.12 57.98 46.83 62.82Z" fill="black"/>
<path d="M54.86 32.59L51.94 33.65C54.73 41.32 50.76 49.8 43.11 52.58C35.46 55.36 26.97 51.42 24.18 43.75L21.26 44.81C24.65 54.13 34.91 58.87 44.18 55.5C53.45 52.13 58.26 41.9 54.87 32.58L54.86 32.59Z" fill="black"/>
<path d="M25.79 33.03C27.4 32.44 29.19 33.28 29.78 34.89C30.37 36.5 29.53 38.29 27.92 38.88C26.31 39.47 24.52 38.63 23.93 37.02C23.34 35.41 24.18 33.62 25.79 33.03Z" fill="black"/>
<path d="M43.88 26.46C45.49 25.87 47.28 26.71 47.87 28.32C48.46 29.93 47.62 31.72 46.01 32.31C44.4 32.9 42.61 32.06 42.02 30.45C41.43 28.84 42.27 27.05 43.88 26.46Z" fill="black"/>
</g>
<defs>
<filter id="filter0_d_5_815" x="3.05205" y="3.70206" width="76.0059" height="76.0059" filterUnits="userSpaceOnUse" color-interpolation-filters="sRGB">
<feFlood flood-opacity="0" result="BackgroundImageFix"/>
<feColorMatrix in="SourceAlpha" type="matrix" values="0 0 0 0 0 0 0 0 0 0 0 0 0 0 0 0 0 0 127 0" result="hardAlpha"/>
<feOffset dx="3" dy="3"/>
<feGaussianBlur stdDeviation="3"/>
<feColorMatrix type="matrix" values="0 0 0 0 0 0 0 0 0 0 0 0 0 0 0 0 0 0 0.1 0"/>
<feBlend mode="normal" in2="BackgroundImageFix" result="effect1_dropShadow_5_815"/>
<feBlend mode="normal" in="SourceGraphic" in2="effect1_dropShadow_5_815" result="shape"/>
</filter>
</defs>
</svg>
