<svg width="736" height="26" viewBox="0 0 736 26" fill="none" xmlns="http://www.w3.org/2000/svg">
<g clip-path="url(#clip0_124_1044)">
<circle cx="8" cy="12" r="8" fill="#D83B3B"/>
<circle cx="32" cy="12" r="8" fill="#E2C423"/>
<circle cx="56" cy="12" r="8" fill="#03CA0B"/>
</g>
<path d="M642.02 20.2C641.033 20.2 640.133 19.9667 639.32 19.5C638.52 19.0333 637.887 18.4 637.42 17.6C636.953 16.8 636.72 15.9067 636.72 14.92C636.72 13.9333 636.953 13.04 637.42 12.24C637.887 11.44 638.52 10.8067 639.32 10.34C640.133 9.86 641.033 9.62 642.02 9.62C643.02 9.62 643.92 9.86 644.72 10.34C645.52 10.8067 646.153 11.44 646.62 12.24C647.087 13.04 647.32 13.9333 647.32 14.92C647.32 15.9067 647.087 16.8 646.62 17.6C646.153 18.4 645.52 19.0333 644.72 19.5C643.92 19.9667 643.02 20.2 642.02 20.2ZM642.02 18.44C642.647 18.44 643.213 18.2867 643.72 17.98C644.227 17.66 644.627 17.2333 644.92 16.7C645.213 16.1667 645.36 15.5667 645.36 14.9C645.36 14.2467 645.207 13.66 644.9 13.14C644.607 12.6067 644.207 12.18 643.7 11.86C643.207 11.54 642.647 11.38 642.02 11.38C641.393 11.38 640.827 11.54 640.32 11.86C639.827 12.18 639.427 12.6067 639.12 13.14C638.827 13.66 638.68 14.2467 638.68 14.9C638.68 15.5667 638.827 16.1667 639.12 16.7C639.413 17.2333 639.813 17.66 640.32 17.98C640.827 18.2867 641.393 18.44 642.02 18.44ZM650.411 20V9.82H652.411V10.8C653.171 10.0133 654.125 9.62 655.271 9.62C655.965 9.62 656.578 9.77333 657.111 10.08C657.658 10.3867 658.091 10.8 658.411 11.32C658.838 10.76 659.338 10.34 659.911 10.06C660.485 9.76667 661.131 9.62 661.851 9.62C662.611 9.62 663.271 9.78667 663.831 10.12C664.405 10.4533 664.851 10.92 665.171 11.52C665.505 12.12 665.671 12.8133 665.671 13.6V20H663.671V13.94C663.671 13.14 663.458 12.5133 663.031 12.06C662.618 11.5933 662.051 11.36 661.331 11.36C660.838 11.36 660.391 11.4733 659.991 11.7C659.591 11.9267 659.245 12.2733 658.951 12.74C658.978 12.8733 658.998 13.0133 659.011 13.16C659.025 13.3067 659.031 13.4533 659.031 13.6V20H657.051V13.94C657.051 13.14 656.838 12.5133 656.411 12.06C655.998 11.5933 655.431 11.36 654.711 11.36C654.231 11.36 653.798 11.4667 653.411 11.68C653.025 11.88 652.691 12.1867 652.411 12.6V20H650.411ZM673.95 20.18C672.977 20.18 672.09 19.9467 671.29 19.48C670.49 19.0133 669.857 18.38 669.39 17.58C668.937 16.78 668.71 15.8867 668.71 14.9C668.71 13.9133 668.943 13.0267 669.41 12.24C669.877 11.44 670.503 10.8067 671.29 10.34C672.09 9.86 672.977 9.62 673.95 9.62C674.723 9.62 675.463 9.76667 676.17 10.06C676.89 10.3533 677.51 10.7667 678.03 11.3L676.79 12.68C676.403 12.2533 675.97 11.9333 675.49 11.72C675.01 11.5067 674.51 11.4 673.99 11.4C673.377 11.4 672.817 11.5533 672.31 11.86C671.817 12.1667 671.423 12.5867 671.13 13.12C670.837 13.6533 670.69 14.2467 670.69 14.9C670.69 15.5533 670.837 16.1467 671.13 16.68C671.423 17.2133 671.823 17.64 672.33 17.96C672.837 18.2667 673.403 18.42 674.03 18.42C674.55 18.42 675.037 18.32 675.49 18.12C675.943 17.9067 676.37 17.6 676.77 17.2L677.99 18.48C677.457 19.0267 676.837 19.4467 676.13 19.74C675.437 20.0333 674.71 20.18 673.95 20.18ZM680.54 15.22V13.48H687.74V15.22H680.54ZM694.542 20.2C693.662 20.2 692.836 20.0733 692.062 19.82C691.302 19.5533 690.642 19.18 690.082 18.7L691.182 17.38C691.702 17.7933 692.236 18.1133 692.782 18.34C693.342 18.5533 693.909 18.66 694.482 18.66C695.202 18.66 695.789 18.52 696.242 18.24C696.696 17.96 696.922 17.5933 696.922 17.14C696.922 16.7667 696.789 16.4733 696.522 16.26C696.256 16.0467 695.842 15.9 695.282 15.82L693.442 15.56C692.429 15.4133 691.669 15.1 691.162 14.62C690.656 14.14 690.402 13.5 690.402 12.7C690.402 12.0867 690.569 11.5533 690.902 11.1C691.236 10.6333 691.702 10.2733 692.302 10.02C692.902 9.75333 693.602 9.62 694.402 9.62C695.136 9.62 695.842 9.72667 696.522 9.94C697.202 10.1533 697.856 10.4867 698.482 10.94L697.462 12.26C696.902 11.8867 696.356 11.6133 695.822 11.44C695.302 11.2667 694.776 11.18 694.242 11.18C693.629 11.18 693.136 11.3133 692.762 11.58C692.389 11.8333 692.202 12.1667 692.202 12.58C692.202 12.9533 692.329 13.2467 692.582 13.46C692.849 13.66 693.282 13.8 693.882 13.88L695.722 14.14C696.736 14.2867 697.502 14.6 698.022 15.08C698.542 15.5467 698.802 16.18 698.802 16.98C698.802 17.5933 698.616 18.1467 698.242 18.64C697.869 19.12 697.362 19.5 696.722 19.78C696.082 20.06 695.356 20.2 694.542 20.2ZM701.539 20V6L703.539 5.56V10.86C704.326 10.0333 705.346 9.62 706.599 9.62C707.386 9.62 708.073 9.78667 708.659 10.12C709.259 10.4533 709.726 10.92 710.059 11.52C710.406 12.12 710.579 12.8133 710.579 13.6V20H708.579V13.94C708.579 13.14 708.353 12.5133 707.899 12.06C707.446 11.5933 706.826 11.36 706.039 11.36C705.506 11.36 705.026 11.4733 704.599 11.7C704.173 11.9267 703.819 12.2533 703.539 12.68V20H701.539ZM718.967 20.18C717.967 20.18 717.06 19.9467 716.247 19.48C715.447 19.0133 714.807 18.38 714.327 17.58C713.86 16.78 713.627 15.8867 713.627 14.9C713.627 13.9267 713.854 13.0467 714.307 12.26C714.76 11.46 715.374 10.8267 716.147 10.36C716.92 9.88 717.78 9.64 718.727 9.64C719.674 9.64 720.514 9.88 721.247 10.36C721.98 10.8267 722.56 11.4667 722.987 12.28C723.427 13.08 723.647 13.9867 723.647 15V15.56H715.627C715.734 16.12 715.94 16.62 716.247 17.06C716.567 17.5 716.967 17.8467 717.447 18.1C717.94 18.3533 718.474 18.48 719.047 18.48C719.54 18.48 720.014 18.4067 720.467 18.26C720.934 18.1 721.32 17.8733 721.627 17.58L722.907 18.84C722.307 19.2933 721.687 19.6333 721.047 19.86C720.42 20.0733 719.727 20.18 718.967 20.18ZM715.647 14.06H721.667C721.587 13.5267 721.4 13.06 721.107 12.66C720.827 12.2467 720.474 11.9267 720.047 11.7C719.634 11.46 719.18 11.34 718.687 11.34C718.18 11.34 717.714 11.4533 717.287 11.68C716.86 11.9067 716.5 12.2267 716.207 12.64C715.927 13.04 715.74 13.5133 715.647 14.06ZM726.752 20V6L728.752 5.62V20H726.752ZM732.307 20V6L734.307 5.62V20H732.307Z" fill="white"/>
<defs>
<clipPath id="clip0_124_1044">
<rect width="64" height="16" fill="white" transform="translate(0 4)"/>
</clipPath>
</defs>
</svg>
