<svg width="193.17" height="143" viewBox="0 0 194 143" fill="none" xmlns="http://www.w3.org/2000/svg">
<path d="M3.06385 5.43701H0.405701V143H3.06385V5.43701Z" fill="white"/>
<path d="M113.007 136.61C112.349 136.251 112.139 135.71 112.145 134.964C112.172 131.691 112.145 128.424 112.158 125.153C112.158 124.233 112.787 123.648 113.596 123.774C114.027 123.841 114.305 124.119 114.549 124.46C115.488 125.773 116.451 127.071 117.374 128.398C117.648 128.792 117.786 128.839 118.083 128.412C119.003 127.087 119.962 125.787 120.909 124.473C121.36 123.851 121.834 123.646 122.389 123.814C123.008 124.001 123.299 124.466 123.299 125.269C123.299 128.479 123.279 131.689 123.313 134.899C123.313 135.659 123.116 136.224 122.452 136.608H121.724C121.062 136.291 120.832 135.779 120.848 135.046C120.885 133.193 120.861 131.334 120.848 129.479C120.848 129.282 120.928 129.085 120.737 128.867C120.133 129.7 119.544 130.509 118.965 131.324C118.14 132.455 117.288 132.455 116.465 131.324L114.586 128.719C114.586 130.933 114.559 132.963 114.602 134.993C114.616 135.741 114.405 136.283 113.726 136.618C113.489 136.61 113.245 136.61 113.007 136.61Z" fill="#3274B9"/>
<path d="M61.748 136.61C61.6102 136.452 61.4133 136.505 61.24 136.466C57.9459 135.753 55.8764 132.626 56.3017 128.983C56.491 127.424 57.2516 125.99 58.4364 124.959C59.6213 123.927 61.1463 123.372 62.7167 123.4C65.749 123.447 68.4406 126.025 68.7951 129.111C69.2263 132.853 66.702 136.066 63.5319 136.531C63.5024 136.531 63.4787 136.582 63.4492 136.612C62.8782 136.61 62.3229 136.61 61.748 136.61ZM62.5002 134.105C62.9647 134.123 63.4274 134.038 63.8548 133.855C65.43 133.146 66.2511 131.886 66.3318 130.216C66.4126 128.546 65.7195 127.15 64.1915 126.307C63.545 125.966 62.8098 125.831 62.0845 125.92C61.3591 126.009 60.6784 126.318 60.1334 126.805C59.4966 127.385 59.0473 128.142 58.8428 128.979C58.6383 129.816 58.688 130.695 58.9855 131.504C59.2386 132.242 59.7102 132.887 60.3379 133.351C60.9656 133.816 61.7197 134.079 62.5002 134.105Z" fill="#3474B9"/>
<path d="M93.8585 136.61C93.191 136.261 92.9961 135.706 93 134.968C93.0295 131.758 93 128.554 93.0138 125.344C93.0138 124.556 93.2638 124.137 93.825 123.946C94.3862 123.755 94.8725 123.946 95.3569 124.598C96.9321 126.743 98.5073 128.89 100.082 131.039C100.197 131.192 100.264 131.393 100.537 131.5V130.042C100.537 128.447 100.537 126.858 100.537 125.263C100.537 124.487 101.039 123.936 101.719 123.926C102.398 123.916 102.945 124.487 102.945 125.287C102.945 128.597 102.945 131.907 102.945 135.212C102.945 135.887 102.617 136.295 102.093 136.616H101.366C100.986 136.357 100.659 136.026 100.403 135.643C98.8886 133.554 97.3699 131.471 95.8472 129.393C95.7389 129.239 95.6128 129.099 95.4219 128.875C95.4219 130.988 95.3982 132.981 95.4357 134.979C95.4514 135.722 95.2387 136.269 94.5791 136.624C94.3409 136.61 94.1026 136.61 93.8585 136.61Z" fill="#3474B9"/>
<path d="M133.601 136.61C132.935 136.261 132.738 135.706 132.742 134.968C132.772 131.758 132.742 128.554 132.758 125.344C132.758 124.556 133.006 124.137 133.567 123.946C134.129 123.755 134.617 123.946 135.099 124.598C136.674 126.742 138.25 128.894 139.825 131.039C139.941 131.192 140.008 131.393 140.276 131.5V130.042C140.276 128.447 140.276 126.858 140.276 125.263C140.276 124.487 140.778 123.936 141.457 123.926C142.136 123.916 142.682 124.487 142.682 125.287C142.682 128.597 142.682 131.907 142.692 135.212C142.692 135.887 142.361 136.295 141.839 136.616H141.113C140.733 136.356 140.406 136.025 140.15 135.643C138.635 133.554 137.116 131.471 135.593 129.393C135.483 129.239 135.359 129.099 135.168 128.875C135.168 130.988 135.145 132.981 135.182 134.979C135.196 135.722 134.985 136.269 134.325 136.624C134.091 136.61 133.845 136.61 133.601 136.61Z" fill="#3474B9"/>
<path d="M146.447 136.61C145.777 136.261 145.586 135.706 145.59 134.967C145.62 131.744 145.59 128.514 145.604 125.287C145.604 124.176 146.021 123.755 147.142 123.768C148.262 123.782 149.359 123.672 150.452 123.95C153.427 124.712 155.374 127.297 155.307 130.422C155.258 131.864 154.724 133.247 153.792 134.348C152.859 135.448 151.582 136.201 150.168 136.486C150.054 136.509 149.924 136.486 149.843 136.61H146.447ZM148.041 130.139C148.041 131.332 148.041 132.524 148.041 133.713C148.041 133.975 148.041 134.172 148.412 134.178C149.593 134.201 150.658 133.941 151.548 133.142C152.181 132.583 152.618 131.835 152.795 131.01C152.972 130.184 152.88 129.323 152.533 128.554C152.171 127.781 151.58 127.14 150.84 126.717C150.099 126.294 149.247 126.11 148.398 126.191C148.004 126.224 148.063 126.454 148.063 126.689C148.041 127.839 148.041 128.985 148.041 130.139Z" fill="#3474B9"/>
<path d="M161.84 136.61C160.543 136.238 159.292 135.767 158.219 134.914C157.825 134.603 157.583 134.235 157.66 133.723C157.794 132.807 158.757 132.443 159.556 133.022C160.356 133.601 161.181 134.091 162.157 134.249C163.134 134.406 164.097 134.249 164.902 133.613C165.707 132.977 165.658 132.155 164.735 131.63C164.035 131.269 163.281 131.026 162.502 130.911C161.585 130.765 160.697 130.471 159.873 130.042C157.44 128.692 157.349 125.732 159.71 124.247C161.181 123.327 162.766 123.164 164.418 123.668C165.223 123.933 165.983 124.323 166.668 124.822C166.925 124.987 167.106 125.247 167.17 125.545C167.235 125.844 167.179 126.155 167.014 126.412C166.849 126.669 166.589 126.849 166.29 126.914C165.992 126.979 165.681 126.923 165.424 126.758C164.902 126.451 164.414 126.092 163.849 125.885C162.813 125.521 161.813 125.588 160.907 126.226C160.07 126.817 160.119 127.51 161.007 128.012C161.722 128.42 162.522 128.554 163.307 128.721C164.241 128.891 165.139 129.217 165.965 129.684C168.306 131.098 168.407 133.918 166.196 135.537C165.428 136.098 164.542 136.324 163.671 136.6C163.053 136.61 162.445 136.61 161.84 136.61Z" fill="#3474B9"/>
<path d="M83.1944 136.61C82.523 136.261 82.332 135.706 82.3359 134.967C82.3654 131.74 82.3359 128.51 82.3516 125.281C82.3516 124.194 82.7671 123.768 83.8402 123.768H89.1093C89.9756 123.768 90.5506 124.243 90.5703 124.962C90.59 125.681 89.9993 126.202 89.1053 126.206C87.8353 126.206 86.5614 126.226 85.2914 126.206C84.8838 126.197 84.7696 126.336 84.7893 126.724C84.8198 127.308 84.8198 127.893 84.7893 128.477C84.7656 128.894 84.9271 128.985 85.3111 128.975C86.3409 128.951 87.3706 128.975 88.4004 128.975C89.3534 128.975 89.8752 129.41 89.8811 130.182C89.887 130.954 89.3534 131.413 88.4201 131.413C87.3706 131.413 86.3212 131.427 85.2697 131.413C84.9055 131.403 84.7716 131.509 84.7893 131.888C84.8188 132.51 84.8129 133.138 84.7893 133.766C84.7755 134.115 84.9055 134.211 85.2441 134.207C86.4767 134.192 87.7073 134.207 88.938 134.207C89.8673 134.207 90.2887 134.438 90.4935 135.05C90.6982 135.663 90.5092 136.066 89.7472 136.645C87.5577 136.619 85.3734 136.607 83.1944 136.61Z" fill="#3473B8"/>
<path d="M72.7744 136.61C72.1227 136.251 71.9061 135.71 71.912 134.964C71.9395 131.734 71.912 128.506 71.9258 125.277C71.9258 124.194 72.353 123.749 73.4202 123.768C74.6706 123.792 75.9248 123.625 77.1613 123.863C78.1359 124.046 79.0072 124.586 79.6054 125.377C80.2035 126.169 80.4856 127.154 80.3966 128.142C80.3076 129.13 79.8539 130.049 79.124 130.72C78.394 131.392 77.4402 131.767 76.4486 131.773C75.9442 131.801 75.4388 131.801 74.9344 131.773C74.4264 131.724 74.3319 131.935 74.3437 132.39C74.3772 133.258 74.3142 134.129 74.3634 134.991C74.4067 135.743 74.1665 136.281 73.4911 136.616C73.2568 136.61 73.0127 136.61 72.7744 136.61ZM74.3496 127.788H74.3732C74.3732 128.181 74.3732 128.591 74.3732 128.995C74.3634 129.257 74.4638 129.349 74.7218 129.343C75.2691 129.33 75.8106 129.343 76.356 129.343C76.7638 129.349 77.1584 129.2 77.4593 128.924C77.7601 128.649 77.9445 128.269 77.9745 127.862C78.0218 127.039 77.3327 126.297 76.4466 126.214C76.2854 126.2 76.1234 126.2 75.9622 126.214C75.4503 126.252 74.7651 125.984 74.4697 126.338C74.2019 126.622 74.3634 127.284 74.3339 127.788H74.3496Z" fill="#3473B8"/>
<path d="M128.151 136.61C127.481 136.265 127.284 135.71 127.288 134.971C127.318 131.704 127.288 128.443 127.304 125.176C127.304 124.304 127.786 123.759 128.535 123.768C128.691 123.766 128.846 123.795 128.992 123.854C129.137 123.912 129.269 123.999 129.38 124.109C129.492 124.219 129.58 124.35 129.64 124.494C129.701 124.639 129.732 124.793 129.732 124.95C129.742 128.437 129.732 131.923 129.742 135.411C129.742 136.029 129.334 136.33 128.879 136.608L128.151 136.61Z" fill="#3473B8"/>
<path d="M30.3326 83.407V79.4055C30.4763 76.1641 30.7126 72.9247 31.1714 69.707C31.9815 63.9995 33.381 58.3913 35.3476 52.9724C38.2226 45.0297 42.326 37.5873 47.5082 30.917C53.9079 22.6291 61.9108 15.7148 71.0397 10.5866C79.2682 5.94906 88.0578 2.89281 97.3495 1.25046C101.404 0.553521 105.502 0.135717 109.614 0L114.462 0C118.289 0.134179 122.103 0.508413 125.882 1.1205C132.33 2.17953 138.631 3.99181 144.657 6.52014C154.817 10.8013 163.731 16.8941 171.321 24.8892C177.547 31.4416 182.619 39.0006 186.323 47.2459C189.424 54.1229 191.574 61.3907 192.712 68.8484C193.212 71.9134 193.5 75.0091 193.575 78.1137V84.8091C193.534 86.9868 193.369 89.1605 193.08 91.3194C192.457 96.5036 191.336 101.616 189.733 106.585C187.948 112.116 185.546 117.428 182.572 122.421C181.107 124.873 178.606 126.023 175.781 125.558C173.28 125.147 171.154 123.048 170.622 120.409C170.304 118.912 170.562 117.35 171.345 116.035C177.597 105.334 180.836 93.14 180.719 80.7466C180.619 69.1871 177.878 58.2854 172.252 48.197C163.923 33.2801 151.726 22.7585 135.694 16.7602C128.884 14.2085 121.698 12.807 114.429 12.613C97.3574 12.1325 82.0839 17.1422 68.7931 27.8686C57.8002 36.7302 50.253 48.0218 46.1496 61.5622C43.9755 68.7648 43.0296 76.2821 43.3516 83.7989C43.733 94.4421 46.5722 104.853 51.647 114.216C52.1826 115.2 52.8107 116.147 53.0549 117.278C53.7066 120.305 52.0979 123.442 49.2704 124.621C46.3169 125.852 42.9834 124.859 41.3157 122.15C39.0927 118.532 37.3127 114.696 35.769 110.738C33.4243 104.659 31.8224 98.3198 30.9981 91.857C30.622 89.0488 30.4428 86.2328 30.3326 83.407Z" fill="#3173B8"/>
<path d="M132.394 65.6484C132.394 68.4998 132.394 71.3454 132.394 74.1949C132.394 74.6163 132.354 74.8034 131.833 74.823C126.412 75.0574 121.745 79.3917 121.133 84.7421C121.082 85.3255 121.061 85.9111 121.07 86.4967C121.033 91.5635 121.143 96.6323 120.999 101.699C120.983 103.457 120.691 105.201 120.133 106.868C119.217 109.47 117.408 111.059 114.71 111.616C112.644 112.043 110.509 112.002 108.461 111.496C105.352 110.744 103.579 108.688 102.808 105.651C102.349 103.836 102.248 101.983 102.239 100.128C102.209 95.4626 102.191 90.7975 102.239 86.1324C102.246 83.5813 101.391 81.1027 99.8118 79.099C98.233 77.0953 96.0233 75.6842 93.5415 75.0948C92.8777 74.9247 92.1965 74.8315 91.5114 74.8171C90.9542 74.8171 90.9207 74.6064 90.9207 74.1515C90.9338 69.1418 90.9338 64.1327 90.9207 59.1243V57.4859C90.9207 56.4855 90.9207 56.4619 91.9505 56.5013C99.2732 56.8164 105.692 59.3744 111.152 64.2798C111.52 64.6106 111.688 64.6106 112.056 64.2798C116.572 60.1965 122.218 57.5748 128.251 56.7592C129.449 56.5922 130.656 56.4988 131.866 56.4796C132.311 56.4796 132.394 56.6194 132.394 57.0271C132.386 59.9159 132.394 62.7792 132.394 65.6484Z" fill="#E52D22"/>
<path d="M163.896 96.6226V107.286C163.897 107.831 163.861 108.375 163.79 108.915C163.518 110.854 162.134 111.894 160.194 111.597C158.005 111.262 156.179 110.159 154.498 108.818C149.873 105.13 146.773 100.445 145.44 94.6395C145.165 93.4611 145.021 92.2558 145.009 91.0457C144.999 89.2734 145.009 87.4912 145.009 85.715C144.986 80.6993 140.987 75.9338 136.048 75.0417C135.435 74.9284 134.815 74.858 134.192 74.831C133.798 74.8152 133.674 74.7148 133.684 74.317C133.711 73.3501 133.693 72.3773 133.693 71.4104C133.693 66.6626 133.693 61.9207 133.678 57.1729C133.678 56.6412 133.808 56.4935 134.345 56.5132C143.273 56.844 150.715 60.3295 156.607 67.0407C160.137 71.056 162.354 75.7506 163.384 80.9908C163.724 82.7122 163.897 84.4624 163.902 86.2171C163.899 89.6804 163.897 93.1488 163.896 96.6226Z" fill="#4BAB37"/>
<path d="M59.4344 96.3685C59.4344 92.9775 59.4344 89.5865 59.4344 86.1935C59.4285 80.2886 61.249 74.5265 64.6464 69.6972C69.372 62.8659 75.8697 58.6557 84.0095 57.0271C85.692 56.7076 87.3989 56.533 89.1112 56.5053C89.505 56.4954 89.6232 56.5998 89.6232 57.0035C89.6087 62.7799 89.6087 68.5563 89.6232 74.3328C89.6232 74.6872 89.5523 74.8054 89.1644 74.8211C86.5534 74.9081 84.0545 75.9034 82.0985 77.6353C80.1425 79.3673 78.8519 81.7274 78.4491 84.3089C78.1852 85.9768 78.3211 87.6566 78.325 89.3245C78.325 91.8845 78.1281 94.3973 77.248 96.8175C75.2317 102.379 71.6816 106.664 66.5189 109.592C65.3636 110.26 64.0873 110.691 62.764 110.862C60.7576 111.106 59.4541 110.037 59.4403 108.007C59.4206 104.123 59.4344 100.244 59.4344 96.3685Z" fill="#F6AC28"/>
<path d="M154.541 59.0909C149.375 59.1007 145.09 54.857 145.163 49.7173C145.24 44.0735 149.997 40.4855 154.49 40.4718C159.298 40.4521 163.866 44.3767 163.886 49.6976C163.894 50.9293 163.657 52.1503 163.191 53.2902C162.725 54.4302 162.037 55.4666 161.169 56.3397C160.3 57.2128 159.267 57.9054 158.13 58.3776C156.992 58.8498 155.773 59.0922 154.541 59.0909Z" fill="#4AAC37"/>
<path d="M68.799 59.077C63.6166 59.0436 59.3871 54.8196 59.4679 49.6602C59.5545 44.1463 64.2427 40.4047 68.9604 40.4638C73.5265 40.5209 78.1852 44.229 78.201 49.7941C78.2147 54.9239 73.94 59.1145 68.799 59.077Z" fill="#F6AD27"/>
<path d="M111.516 59.0909C110.289 59.0909 109.074 58.8474 107.941 58.3743C106.808 57.9012 105.78 57.2081 104.917 56.3349C104.054 55.4618 103.373 54.426 102.913 53.2877C102.454 52.1494 102.224 50.9311 102.239 49.7035C102.305 44.17 106.899 40.4008 111.67 40.4678C116.441 40.5348 121.015 44.5717 120.891 50.0619C120.781 54.9574 116.508 59.1302 111.516 59.0909Z" fill="#E52D23"/>
</svg>
