<?xml version="1.0" encoding="utf-8"?>
<!-- Generator: Adobe Illustrator 27.0.0, SVG Export Plug-In . SVG Version: 6.00 Build 0)  -->
<svg version="1.1" id="Calque_1" xmlns="http://www.w3.org/2000/svg" xmlns:xlink="http://www.w3.org/1999/xlink" x="0px" y="0px"
	 viewBox="0 0 512 512" style="enable-background:new 0 0 512 512;" xml:space="preserve">
<style type="text/css">
	.st0{fill:#3274B9;}
	.st1{fill:#3474B9;}
	.st2{fill:#3473B8;}
	.st3{fill:#3173B8;}
	.st4{fill:#E52D22;}
	.st5{fill:#4BAB37;}
	.st6{fill:#F6AC28;}
	.st7{fill:#4AAC37;}
	.st8{fill:#F6AD27;}
	.st9{fill:#E52D23;}
</style>
<g>
	<path class="st0" d="M257.78,398.84c-1.37-0.75-1.81-1.88-1.8-3.44c0.06-6.83,0.02-13.65,0.03-20.48c0-1.92,1.31-3.14,3-2.88
		c0.9,0.14,1.48,0.72,1.99,1.43c1.96,2.74,3.97,5.45,5.9,8.21c0.57,0.81,0.86,0.92,1.48,0.03c1.92-2.77,3.92-5.48,5.9-8.21
		c0.94-1.3,1.93-1.73,3.09-1.38c1.29,0.39,1.9,1.36,1.9,3.04c0,6.7-0.04,13.4,0.03,20.1c0.02,1.59-0.41,2.77-1.8,3.57
		c-0.51,0-1.01,0-1.52,0c-1.38-0.66-1.86-1.73-1.83-3.26c0.08-3.87,0.03-7.75,0.02-11.62c0-0.39,0.17-0.82-0.23-1.28
		c-1.26,1.74-2.49,3.43-3.72,5.13c-1.72,2.36-3.5,2.36-5.22-0.02c-1.24-1.72-2.48-3.44-3.92-5.44c0,4.62-0.06,8.86,0.03,13.1
		c0.03,1.56-0.42,2.69-1.83,3.39C258.79,398.84,258.28,398.84,257.78,398.84z"/>
	<path class="st1" d="M150.76,398.84c-0.29-0.33-0.7-0.22-1.06-0.3c-6.88-1.49-11.2-8.02-10.31-15.61
		c0.78-6.72,6.58-11.77,13.38-11.67c6.33,0.1,11.95,5.48,12.69,11.91c0.9,7.8-4.37,14.52-10.99,15.49
		c-0.06,0.01-0.11,0.11-0.17,0.17C153.12,398.84,151.94,398.84,150.76,398.84z M152.33,393.6c0.98,0.01,1.93-0.11,2.83-0.52
		c3.27-1.48,5-4.09,5.17-7.6c0.17-3.55-1.28-6.4-4.47-8.16c-2.7-1.49-6.1-1.02-8.47,1.04c-2.69,2.35-3.67,6.35-2.4,9.81
		C146.16,391.39,149.08,393.55,152.33,393.6z"/>
	<path class="st1" d="M217.8,398.84c-1.39-0.73-1.8-1.89-1.79-3.43c0.06-6.7,0.02-13.39,0.03-20.09c0-1.63,0.52-2.52,1.69-2.92
		c1.23-0.42,2.19-0.02,3.2,1.36c3.29,4.48,6.56,8.97,9.85,13.45c0.24,0.32,0.38,0.74,0.95,0.96c0-1.06,0-2.05,0-3.04
		c0-3.33-0.01-6.65,0-9.98c0.01-1.62,1.05-2.77,2.47-2.79c1.46-0.02,2.56,1.17,2.56,2.84c0.01,6.91-0.02,13.82,0.02,20.72
		c0.01,1.41-0.69,2.26-1.78,2.93c-0.51,0-1.01,0-1.52,0c-0.82-0.52-1.44-1.24-2.01-2.03c-3.16-4.36-6.33-8.7-9.51-13.05
		c-0.23-0.32-0.49-0.61-0.89-1.08c0,4.41-0.05,8.57,0.03,12.73c0.03,1.55-0.41,2.69-1.79,3.43
		C218.81,398.84,218.31,398.84,217.8,398.84z"/>
	<path class="st1" d="M300.79,398.84c-1.39-0.73-1.8-1.89-1.79-3.43c0.06-6.7,0.02-13.39,0.03-20.09c0-1.63,0.52-2.52,1.69-2.92
		c1.23-0.42,2.19-0.02,3.2,1.36c3.29,4.48,6.56,8.97,9.85,13.45c0.24,0.32,0.38,0.74,0.94,0.96c0-1.06,0-2.05,0-3.04
		c0-3.33-0.01-6.65,0-9.98c0.01-1.62,1.05-2.77,2.47-2.79c1.46-0.02,2.56,1.17,2.56,2.84c0.01,6.91-0.02,13.82,0.02,20.72
		c0.01,1.41-0.69,2.26-1.78,2.93c-0.51,0-1.01,0-1.52,0c-0.82-0.53-1.44-1.24-2.01-2.03c-3.16-4.36-6.33-8.7-9.51-13.05
		c-0.23-0.32-0.49-0.61-0.89-1.08c0,4.41-0.05,8.57,0.03,12.73c0.03,1.55-0.41,2.69-1.79,3.43
		C301.8,398.84,301.29,398.84,300.79,398.84z"/>
	<path class="st1" d="M327.6,398.84c-1.4-0.73-1.8-1.89-1.79-3.43c0.06-6.73,0.02-13.47,0.03-20.21c0-2.32,0.87-3.2,3.21-3.17
		c2.31,0.03,4.63-0.2,6.91,0.38c6.21,1.59,10.28,7,10.14,13.51c-0.14,6.11-4.62,11.4-10.73,12.66c-0.24,0.05-0.51,0.01-0.68,0.26
		C332.33,398.84,329.97,398.84,327.6,398.84z M330.93,385.33c0,2.49,0.01,4.98,0,7.46c0,0.55,0,0.96,0.77,0.97
		c2.45,0.05,4.69-0.49,6.55-2.16c2.72-2.43,3.52-6.28,2.04-9.58c-1.48-3.3-5.01-5.27-8.65-4.94c-0.82,0.07-0.7,0.55-0.7,1.04
		C330.93,380.53,330.93,382.93,330.93,385.33z"/>
	<path class="st1" d="M359.74,398.84c-2.71-0.78-5.32-1.76-7.56-3.54c-0.82-0.65-1.33-1.42-1.17-2.49c0.28-1.91,2.29-2.67,3.96-1.46
		c1.65,1.2,3.39,2.23,5.43,2.56c2.08,0.34,4.05-0.01,5.73-1.33c1.74-1.37,1.58-3.04-0.35-4.14c-1.45-0.82-3.05-1.19-4.66-1.5
		c-1.91-0.36-3.78-0.86-5.49-1.81c-5.08-2.82-5.27-9-0.34-12.1c3.07-1.92,6.38-2.26,9.83-1.21c1.7,0.52,3.24,1.4,4.7,2.41
		c1.17,0.81,1.45,2.22,0.73,3.33c-0.72,1.12-2.1,1.44-3.33,0.71c-1.09-0.64-2.11-1.39-3.31-1.82c-2.16-0.76-4.25-0.62-6.14,0.71
		c-1.75,1.23-1.64,2.68,0.21,3.73c1.49,0.85,3.16,1.13,4.8,1.48c1.94,0.41,3.83,0.98,5.55,2.01c4.89,2.95,5.1,8.84,0.48,12.22
		c-1.6,1.17-3.45,1.63-5.27,2.22C362.27,398.84,361,398.84,359.74,398.84z"/>
	<path class="st2" d="M195.54,398.84c-1.4-0.73-1.8-1.89-1.79-3.43c0.06-6.74,0.02-13.48,0.03-20.22c0-2.27,0.87-3.16,3.11-3.16
		c3.67,0,7.33,0,11,0c1.81,0,3.01,0.99,3.05,2.49c0.03,1.54-1.19,2.59-3.06,2.6c-2.65,0.01-5.31,0.04-7.96-0.02
		c-0.85-0.02-1.09,0.27-1.05,1.08c0.06,1.22,0.07,2.45,0,3.66c-0.05,0.87,0.29,1.06,1.09,1.04c2.15-0.05,4.3-0.02,6.45-0.01
		c1.99,0.01,3.08,0.91,3.09,2.52c0.01,1.63-1.1,2.57-3.05,2.57c-2.19,0.01-4.38,0.03-6.57-0.01c-0.76-0.02-1.04,0.2-1,0.99
		c0.06,1.3,0.05,2.61,0,3.92c-0.03,0.73,0.24,0.93,0.95,0.92c2.57-0.03,5.14-0.01,7.71-0.01c1.94,0,2.82,0.48,3.25,1.76
		c0.43,1.27,0.03,2.12-1.56,3.33C204.65,398.84,200.09,398.84,195.54,398.84z"/>
	<path class="st2" d="M173.78,398.84c-1.36-0.75-1.81-1.88-1.8-3.44c0.06-6.74,0.02-13.48,0.03-20.22c0-2.26,0.89-3.19,3.12-3.15
		c2.61,0.05,5.23-0.3,7.82,0.2c4.24,0.82,7.11,4.68,6.74,8.92c-0.36,4.2-3.94,7.5-8.23,7.59c-1.05,0.02-2.11,0.08-3.16-0.02
		c-1.06-0.1-1.26,0.34-1.23,1.29c0.07,1.81-0.06,3.63,0.04,5.43c0.09,1.57-0.42,2.69-1.82,3.39
		C174.79,398.84,174.28,398.84,173.78,398.84z M177.05,380.42c0.02,0,0.03,0,0.05,0c0,0.84,0.02,1.68-0.01,2.52
		c-0.02,0.55,0.19,0.74,0.73,0.73c1.14-0.03,2.27,0.02,3.41-0.01c1.85-0.05,3.29-1.37,3.38-3.09c0.1-1.72-1.34-3.27-3.19-3.44
		c-0.33-0.03-0.67-0.04-1.01-0.01c-1.07,0.08-2.5-0.48-3.12,0.26C176.76,378,177.1,379.37,177.05,380.42z"/>
	<path class="st2" d="M289.4,398.84c-1.4-0.72-1.81-1.88-1.8-3.42c0.06-6.82,0.02-13.63,0.03-20.45c0-1.82,1.01-2.96,2.57-2.94
		c1.39,0.02,2.5,1.04,2.5,2.47c0.02,7.28,0.01,14.56,0.02,21.84c0,1.29-0.85,1.92-1.8,2.5C290.41,398.84,289.91,398.84,289.4,398.84
		z"/>
	<path class="st3" d="M85.17,287.77c0-2.78,0-5.57,0-8.35c0.3-6.77,0.79-13.53,1.75-20.25c1.72-11.95,4.6-23.6,8.73-34.94
		c6.07-16.67,14.5-32.03,25.39-46.05c13.54-17.42,29.89-31.6,49.12-42.43c17.18-9.68,35.53-16.06,54.93-19.49
		c8.47-1.5,17.02-2.28,25.61-2.61c3.37,0,6.75,0,10.12,0c8,0.32,15.96,1.02,23.86,2.34c13.5,2.25,26.58,5.95,39.2,11.27
		c21.21,8.94,39.82,21.66,55.67,38.35c13.08,13.77,23.5,29.36,31.32,46.67c6.52,14.42,10.92,29.47,13.34,45.1
		c0.99,6.4,1.7,12.85,1.8,19.34c0,4.66,0,9.33,0,13.99c-0.03,4.56-0.48,9.08-1.03,13.59c-1.33,10.84-3.63,21.48-7.01,31.87
		c-3.77,11.57-8.7,22.61-14.95,33.06c-3.06,5.12-8.28,7.52-14.18,6.55c-5.22-0.86-9.66-5.24-10.77-10.75
		c-0.65-3.21-0.14-6.29,1.51-9.13c4.45-7.67,8.22-15.65,11.19-24c5.71-16.06,8.53-32.62,8.38-49.67
		c-0.21-24.13-5.93-46.89-17.69-67.95c-17.39-31.15-42.84-53.12-76.31-65.64c-14.31-5.35-29.13-8.23-44.41-8.66
		c-35.64-1-67.53,9.46-95.28,31.85c-22.95,18.52-38.71,42.07-47.26,70.34c-4.58,15.12-6.47,30.62-5.84,46.42
		c0.89,22.5,6.62,43.68,17.31,63.5c1.12,2.07,2.43,4.03,2.94,6.39c1.36,6.32-2,12.87-7.9,15.33c-6.18,2.57-13.13,0.5-16.61-5.16
		c-4.64-7.55-8.36-15.56-11.58-23.82c-4.96-12.73-8.18-25.9-9.96-39.42C85.77,299.55,85.4,293.67,85.17,287.77z"/>
	<path class="st4" d="M298.26,250.7c0,5.95-0.01,11.89,0.01,17.84c0,0.88-0.08,1.27-1.17,1.31c-11.32,0.49-21.06,9.54-22.34,20.71
		c-0.14,1.21-0.12,2.44-0.13,3.66c-0.08,10.58,0.15,21.16-0.15,31.74c-0.1,3.68-0.58,7.3-1.81,10.79
		c-1.91,5.43-5.69,8.75-11.32,9.91c-4.36,0.9-8.72,0.8-13.05-0.25c-6.49-1.57-10.19-5.86-11.8-12.2c-0.96-3.79-1.17-7.66-1.19-11.53
		c-0.06-9.74-0.1-19.48-0.01-29.22c0.1-11.1-7.81-20.68-18.16-23.04c-1.4-0.32-2.82-0.59-4.24-0.58c-1.16,0-1.25-0.44-1.24-1.39
		c0.03-10.46,0.02-20.91,0.02-31.37c0-1.14,0-2.28,0-3.42c0-2.09,0-2.14,2.15-2.05c15.29,0.66,28.69,6,40.09,16.24
		c0.77,0.69,1.12,0.69,1.89,0.01c9.68-8.65,20.97-13.87,33.81-15.7c2.5-0.36,5.02-0.53,7.55-0.58c0.93-0.02,1.1,0.29,1.1,1.14
		C298.24,238.73,298.26,244.71,298.26,250.7z"/>
	<path class="st5" d="M364.03,315.36c0,7.42,0,14.84,0,22.26c0,1.14-0.07,2.27-0.22,3.4c-0.57,4.05-3.46,6.22-7.51,5.6
		c-4.57-0.7-8.38-3-11.89-5.8c-9.66-7.7-16.13-17.48-18.93-29.58c-0.57-2.46-0.88-4.97-0.9-7.5c-0.02-3.71,0-7.42-0.01-11.13
		c-0.05-10.47-8.4-20.42-18.71-22.28c-1.28-0.23-2.58-0.43-3.87-0.48c-0.82-0.03-1.08-0.24-1.06-1.07c0.06-2.02,0.02-4.05,0.02-6.07
		c0-9.91,0.02-19.81-0.03-29.72c-0.01-1.11,0.27-1.42,1.39-1.38c18.64,0.69,34.18,7.97,46.48,21.98c7.37,8.38,12,18.18,14.15,29.12
		c0.7,3.59,1.08,7.24,1.08,10.91C364.03,300.86,364.02,308.11,364.03,315.36z"/>
	<path class="st6" d="M145.93,314.83c0-7.08-0.02-14.16,0-21.24c0.05-12.61,3.74-24.12,10.88-34.44
		c9.87-14.26,23.42-23.05,40.43-26.45c3.51-0.7,7.07-1,10.65-1.09c0.82-0.02,1.07,0.2,1.07,1.04c-0.03,12.05-0.02,24.11,0,36.16
		c0,0.74-0.15,0.99-0.96,1.02c-11.28,0.4-20.61,8.68-22.37,19.81c-0.55,3.48-0.27,6.98-0.26,10.47c0.01,5.33-0.42,10.59-2.25,15.64
		c-4.21,11.61-11.62,20.57-22.4,26.67c-2.43,1.37-5.03,2.31-7.84,2.65c-4.19,0.51-6.91-1.72-6.94-5.96
		C145.9,331.02,145.93,322.92,145.93,314.83z"/>
	<path class="st7" d="M344.5,237.01c-10.79,0.02-19.72-8.84-19.58-19.57c0.16-11.78,10.09-19.27,19.47-19.3
		c10.04-0.04,19.58,8.15,19.62,19.26C364.07,228.24,355.34,236.98,344.5,237.01z"/>
	<path class="st8" d="M165.48,236.99c-10.82-0.07-19.65-8.89-19.48-19.66c0.18-11.52,9.97-19.33,19.82-19.2
		c9.53,0.12,19.26,7.86,19.29,19.48C185.14,228.31,176.2,237.06,165.48,236.99z"/>
	<path class="st9" d="M254.67,237.01c-10.83-0.08-19.5-8.78-19.37-19.6c0.14-11.55,9.73-19.42,19.69-19.28
		c9.96,0.14,19.51,8.57,19.25,20.03C274.01,228.38,265.09,237.09,254.67,237.01z"/>
</g>
</svg>
